Coordinates
version=1
nRows=24
nColumns=24
inDegrees=yes

Units are S.I. units (second, meters, Newtons, ...)
Angles are in degrees.

endheader
time	pelvis_tilt	pelvis_list	pelvis_rotation	pelvis_tx	pelvis_ty	pelvis_tz	hip_flexion_r	hip_adduction_r	hip_rotation_r	knee_angle_r	ankle_angle_r	subtalar_angle_r	mtp_angle_r	hip_flexion_l	hip_adduction_l	hip_rotation_l	knee_angle_l	ankle_angle_l	subtalar_angle_l	mtp_angle_l	lumbar_extension	lumbar_bending	lumbar_rotation
      4.57500000	     -5.77525254	     -5.91945678	     -1.78490504	      0.07901437	     -0.01503522	     -0.14111794	     11.86408157	     14.54037830	     12.17284991	    -18.50852802	      0.49070033	     -4.53610104	      9.41543285	     31.27945638	     -7.45898747	     -9.11654879	    -64.69167232	     -6.71982261	     -6.01089995	     -9.74998046	      5.29508748	      5.05001496	      0.55687199
      4.58000000	     -5.72285741	     -5.79972585	     -1.87981533	      0.08494848	     -0.01468350	     -0.14078089	     11.13573128	     14.42779961	     12.42798121	    -18.19106252	      0.73797347	     -4.57677723	      9.30634692	     31.93437913	     -7.26433889	     -9.23407659	    -63.85707508	     -5.99820135	     -5.81978066	     -9.61372350	      5.18202926	      4.95784622	      0.82133201
      4.58500000	     -5.73570315	     -5.66188295	     -1.93509865	      0.09081934	     -0.01447872	     -0.14052077	     10.51685472	     14.28716009	     12.65590589	    -17.92588608	      1.01220706	     -4.62499059	      9.28389433	     32.65110470	     -7.00171377	     -9.28355482	    -62.94614719	     -5.36409732	     -5.67791662	     -9.51327218	      5.12952538	      4.83526649	      0.98147276
      4.59000000	     -5.73844944	     -5.52296406	     -2.02319879	      0.09670407	     -0.01430839	     -0.14019269	      9.89103327	     14.15267936	     12.89455332	    -17.67091106	      1.28215952	     -4.65976240	      9.26557858	     33.31156920	     -6.76762802	     -9.36284328	    -61.96089265	     -4.72787695	     -5.41744445	     -9.42128193	      5.06673577	      4.70587138	      1.19116782
      4.59500000	     -5.71566478	     -5.39669378	     -2.13200837	      0.10261079	     -0.01414997	     -0.13987611	      9.23336020	     14.02924368	     13.15503029	    -17.41492813	      1.53277246	     -4.68770020	      9.20871118	     33.90569020	     -6.57006166	     -9.47345029	    -60.91237306	     -4.09890930	     -5.04895398	     -9.37412526	      4.97610397	      4.60519216	      1.45650557
      4.60000000	     -5.76734949	     -5.25150270	     -2.18232029	      0.10845133	     -0.01414187	     -0.13967842	      8.70437873	     13.87855988	     13.35618566	    -17.22518724	      1.79971482	     -4.75961605	      9.20507295	     34.56903503	     -6.28838153	     -9.49466031	    -59.78186439	     -3.56415297	     -4.75075561	     -9.31703433	      4.95920250	      4.47536906	      1.58890879
      4.60500000	     -5.79543752	     -5.10855086	     -2.27664057	      0.11432681	     -0.01415056	     -0.13941394	      8.14698423	     13.73877500	     13.58622773	    -17.04109646	      2.06688894	     -4.82255911	      9.18848868	     35.15393873	     -6.05551373	     -9.56799345	    -58.58785510	     -2.98556501	     -4.28571209	     -9.24660291	      4.91757772	      4.35292682	      1.78601016
      4.61000000	     -5.77928867	     -4.99205211	     -2.38721101	      0.12019911	     -0.01416422	     -0.13916269	      7.53092283	     13.62379098	     13.85203680	    -16.84296055	      2.31083624	     -4.88813134	      9.10523717	     35.65812054	     -5.88004942	     -9.68065015	    -57.35000286	     -2.37404688	     -3.69941842	     -9.21585574	      4.82308142	      4.27068949	      2.05003361
      4.61500000	     -5.84818984	     -4.84860751	     -2.43594922	      0.12600767	     -0.01431000	     -0.13904146	      7.05761077	     13.47374130	     14.03101749	    -16.71237109	      2.56305263	     -4.98538667	      9.07971820	     36.23295221	     -5.60548679	     -9.69341670	    -56.01840596	     -1.86986742	     -3.19590128	     -9.16948415	      4.81457649	      4.14427288	      2.16237889
      4.62000000	     -5.84016108	     -4.73660238	     -2.54111627	      0.13187371	     -0.01441637	     -0.13883076	      6.46983483	     13.36207321	     14.28186365	    -16.54753006	      2.80662762	     -5.06549216	      8.98195241	     36.66969733	     -5.43157353	     -9.77397218	    -54.64985229	     -1.26572025	     -2.46748211	     -9.14170848	      4.72797797	      4.07196395	      2.41682170
      4.62500000	     -5.91974293	     -4.60349058	     -2.58779731	      0.13768080	     -0.01465396	     -0.13875306	      6.01897828	     13.21875065	     14.42988391	    -16.43008331	      3.05007799	     -5.15648094	      8.95740340	     37.17899848	     -5.18302506	     -9.79802161	    -53.19511347	     -0.76801589	     -1.83315109	     -9.08856008	      4.72465153	      3.96085995	      2.51317270
      4.63000000	     -5.92497644	     -4.51092002	     -2.67838968	      0.14354387	     -0.01485011	     -0.13861686	      5.46044719	     13.11704653	     14.62358242	    -16.28147778	      3.27919735	     -5.20868476	      8.90002627	     37.55498138	     -5.03085534	     -9.87562208	    -51.70228435	     -0.19150585	     -1.02357784	     -9.03346117	      4.65635211	      3.90643939	      2.73214009
      4.63500000	     -5.94956479	     -4.40781528	     -2.74063508	      0.14934226	     -0.01509911	     -0.13856445	      4.94878532	     12.99768666	     14.77706336	    -16.16477266	      3.50230520	     -5.26490494	      8.85072545	     37.91895672	     -4.84126052	     -9.92220663	    -50.13701747	      0.33774931	     -0.24014611	     -9.01209670	      4.58883575	      3.84240761	      2.90286247
      4.64000000	     -5.98943985	     -4.31924087	     -2.80158745	      0.15516735	     -0.01539025	     -0.13850552	      4.45674178	     12.89130344	     14.88638904	    -16.04996675	      3.71984121	     -5.28614214	      8.83883818	     38.25654349	     -4.67505607	     -9.97252100	    -48.51270270	      0.83099429	      0.55728200	     -8.98974175	      4.55011982	      3.78408137	      3.03874568
      4.64500000	     -6.01488549	     -4.24204184	     -2.85784089	      0.16095372	     -0.01570221	     -0.13850370	      3.96014699	     12.78752693	     14.97268933	    -15.94683467	      3.93189843	     -5.26988319	      8.85044943	     38.54097224	     -4.52009057	    -10.02902258	    -46.83500765	      1.31480556	      1.37261410	     -8.98160102	      4.48144276	      3.74806898	      3.19378781
      4.65000000	     -6.08583271	     -4.16919922	     -2.89847444	      0.16671640	     -0.01610657	     -0.13851633	      3.53717541	     12.69103029	     15.00304644	    -15.87783854	      4.14515052	     -5.26122042	      8.89505091	     38.84011125	     -4.35715050	    -10.05630266	    -45.09999590	      1.73400438	      2.14107401	     -8.96707220	      4.45859136	      3.70334393	      3.28011553
      4.65500000	     -6.03082775	     -4.13170163	     -2.98394502	      0.17252919	     -0.01637802	     -0.13849185	      2.94853996	     12.61153398	     15.04730392	    -15.76654318	      4.35457294	     -5.09107403	      8.97227172	     38.94431021	     -4.28472241	    -10.17997923	    -43.33067362	      2.21281384	      3.01963220	     -9.00623103	      4.30957502	      3.70906360	      3.49569910
      4.66000000	     -6.02990550	     -4.09301069	     -3.04336679	      0.17831630	     -0.01674411	     -0.13853241	      2.43941760	     12.52696993	     15.03434851	    -15.67949811	      4.56153719	     -4.91838031	      9.06857191	     39.08029497	     -4.18673383	    -10.27974088	    -41.51956587	      2.62172405	      3.83640680	     -9.08450168	      4.20243193	      3.71429382	      3.62515921
      4.66500000	     -6.06221197	     -4.07264348	     -3.08484865	      0.18411268	     -0.01720665	     -0.13857571	      1.99037241	     12.46746228	     14.99075145	    -15.64236664	      4.76591506	     -4.75732791	      9.18524698	     39.22527881	     -4.10119688	    -10.37777523	    -39.68252371	      2.99933852	      4.63525812	     -9.13587010	      4.14370326	      3.72248646	      3.69354986
      4.67000000	     -5.98151161	     -4.07663947	     -3.16810010	      0.18993543	     -0.01753586	     -0.13862152	      1.39406853	     12.40296297	     14.92284547	    -15.55537650	      4.98528586	     -4.38874656	      9.37288321	     39.20035798	     -4.07627513	    -10.55137257	    -37.82908358	      3.38676083	      5.50265181	     -9.25913083	      3.95466361	      3.77521625	      3.88783533
      4.67500000	     -5.91535761	     -4.08236320	     -3.24248463	      0.19576643	     -0.01794008	     -0.13869260	      0.84036028	     12.34075194	     14.81037186	    -15.51933961	      5.22517897	     -4.01488094	      9.58497141	     39.16061528	     -4.03195414	    -10.68988668	    -35.95746776	      3.78020996	      6.32101049	     -9.44569745	      3.77899119	      3.82128371	      4.03035074
      4.68000000	     -5.86270380	     -4.11324176	     -3.30818394	      0.20163976	     -0.01839147	     -0.13876606	      0.29649658	     12.29927438	     14.68516034	    -15.47854373	      5.43730173	     -3.60619539	      9.81027996	     39.12000618	     -4.02038609	    -10.86304952	    -34.10502092	      4.15463052	      7.19909294	     -9.62435531	      3.62401073	      3.88928190	      4.13488229
      4.68500000	     -5.80343065	     -4.15665975	     -3.36127842	      0.20755721	     -0.01886428	     -0.13885947	     -0.25590922	     12.26269329	     14.54662826	    -15.43939177	      5.63517418	     -3.15579541	     10.05530458	     39.05476633	     -4.01909885	    -11.06187872	    -32.27131825	      4.50332977	      8.12653003	     -9.79273035	      3.46819867	      3.96519042	      4.20801635
      4.69000000	     -5.70525530	     -4.20493638	     -3.43865856	      0.21351932	     -0.01933915	     -0.13896079	     -0.83912081	     12.22059511	     14.37432207	    -15.42721135	      5.86002381	     -2.63513954	     10.35204336	     38.91235816	     -4.01940479	    -11.24005284	    -30.44698842	      4.89664207	      9.03050032	    -10.01301048	      3.26949314	      4.04823088	      4.31269069
